<svg width="1200" height="320" viewBox="0 0 1200 320" fill="none" xmlns="http://www.w3.org/2000/svg">
  <rect width="1200" height="320" rx="28" fill="#F3F0E8"/>
  <rect x="24" y="24" width="1152" height="272" rx="20" stroke="#181512" stroke-opacity="0.18"/>
  <rect x="56" y="54" width="160" height="34" rx="17" fill="#181512"/>
  <text x="136" y="77" text-anchor="middle" fill="#F3F0E8" font-size="16" font-family="Georgia, serif" letter-spacing="3">WU FANGEN</text>
  <text x="60" y="138" fill="#181512" font-size="64" font-family="Georgia, serif">吴方恩</text>
  <text x="60" y="190" fill="#5F584F" font-size="24" font-family="Georgia, serif" letter-spacing="3">HANA / INDEPENDENT CREATOR</text>
  <text x="60" y="246" fill="#181512" font-size="28" font-family="'Noto Serif SC', serif">在技术与表达之间，长期创作。</text>
  <line x1="60" y1="270" x2="390" y2="270" stroke="#181512" stroke-opacity="0.28"/>
  <circle cx="976" cy="152" r="72" fill="#181512"/>
  <circle cx="976" cy="152" r="68" stroke="#F3F0E8" stroke-opacity="0.45" stroke-width="2"/>
  <circle cx="953" cy="142" r="8" fill="#F3F0E8"/>
  <circle cx="999" cy="142" r="8" fill="#F3F0E8"/>
  <path d="M950 180C960 192 992 192 1002 180" stroke="#F3F0E8" stroke-width="5" stroke-linecap="round"/>
  <rect x="930" y="213" width="92" height="18" rx="9" fill="#E7E1D4"/>
  <text x="976" y="226" text-anchor="middle" fill="#181512" font-size="12" font-family="Arial, sans-serif" letter-spacing="2">QUIET MODE</text>
  <path d="M1080 66C1096 84 1098 111 1085 128" stroke="#181512" stroke-opacity="0.24" stroke-width="3" stroke-linecap="round"/>
  <path d="M1112 88C1120 99 1121 116 1114 128" stroke="#181512" stroke-opacity="0.24" stroke-width="3" stroke-linecap="round"/>
</svg>
